Coordinates
version=1
nRows=32
nColumns=12
inDegrees=yes

Units are S.I. units (second, meters, Newtons, ...)
Angles are in degrees

endheader
time	SC_y	SC_z	SC_x	AC_y	AC_z	AC_x	GH_y	GH_z	GH_yy	EL_x	PS_y
       0.0              -54.31          35.33           45.6          64.33           1.37          -8.51          62.86         -18.47          62.51          6.116          94.23
    0.0488              -54.31          35.33           45.6          64.33          1.368         -8.508          62.85         -18.46          62.48          6.117          94.24
    0.0976               -54.3          35.33          45.59          64.32          1.366         -8.507          62.83         -18.45          62.44          6.117          94.25
    0.1464              -54.29          35.33          45.58          64.32          1.364         -8.505          62.82         -18.44          62.41          6.118          94.26
    0.1952              -54.29          35.33          45.58          64.31          1.362         -8.503           62.8         -18.42          62.37          6.118          94.27
     0.244              -54.28          35.32          45.57          64.31          1.359         -8.501          62.78         -18.41          62.33          6.119          94.28
    0.2928              -54.27          35.32          45.56           64.3          1.356         -8.499          62.76         -18.39          62.28           6.12           94.3
    0.3416              -54.26          35.32          45.55           64.3          1.354         -8.497          62.74         -18.38          62.23          6.121          94.31
    0.3904              -54.25          35.31          45.54          64.29          1.351         -8.495          62.72         -18.36          62.18          6.122          94.32
    0.4392              -54.24          35.31          45.53          64.28          1.347         -8.492           62.7         -18.34          62.13          6.123          94.34
     0.488              -54.23          35.31          45.52          64.28          1.344          -8.49          62.67         -18.32          62.07          6.124          94.35
    0.5368              -54.22           35.3          45.51          64.27           1.34         -8.487          62.64         -18.29          62.01          6.125          94.37
    0.5856              -54.21           35.3          45.49          64.26          1.336         -8.483          62.61         -18.27          61.94          6.126          94.39
    0.6344              -54.19           35.3          45.48          64.25          1.331          -8.48          62.58         -18.24          61.86          6.127          94.41
    0.6832              -54.18          35.29          45.46          64.24          1.327         -8.476          62.55         -18.22          61.79          6.128          94.43
     0.732              -54.16          35.29          45.45          64.23          1.321         -8.472          62.51         -18.18           61.7           6.13          94.46
    0.7808              -54.15          35.28          45.43          64.22          1.316         -8.468          62.47         -18.15          61.61          6.132          94.48
    0.8296              -54.13          35.27          45.41          64.21           1.31         -8.463          62.42         -18.11           61.5          6.133          94.51
    0.8784              -54.11          35.27          45.39           64.2          1.303         -8.458          62.38         -18.08          61.39          6.135          94.54
    0.9272              -54.09          35.26          45.36          64.18          1.296         -8.452          62.32         -18.03          61.27          6.137          94.57
     0.976              -54.06          35.25          45.34          64.16          1.288         -8.446          62.26         -17.98          61.14           6.14          94.61
     1.025              -54.03          35.24          45.31          64.15          1.279         -8.439           62.2         -17.93          60.99          6.142          94.65
     1.074               -54.0          35.23          45.28          64.13          1.269         -8.432          62.13         -17.87          60.82          6.145           94.7
     1.122              -53.97          35.22          45.24          64.11          1.258         -8.423          62.05         -17.81          60.64          6.148          94.75
     1.171              -53.94          35.21          45.21          64.08          1.246         -8.414          61.96         -17.74          60.44          6.152           94.8
      1.22              -53.89           35.2          45.16          64.05          1.233         -8.404          61.86         -17.66          60.22          6.155          94.86
     1.269              -53.85          35.18          45.12          64.02          1.218         -8.392          61.76         -17.57          59.97           6.16          94.93
     1.318               -53.8          35.17          45.06          63.99          1.201         -8.379          61.63         -17.47          59.69          6.165          95.01
     1.366              -53.74          35.15           45.0          63.95          1.181         -8.364          61.49         -17.35          59.37           6.17           95.1
     1.415              -53.67          35.12          44.93          63.91           1.16         -8.347          61.33         -17.22          59.01          6.176           95.2
     1.464               -53.6           35.1          44.85          63.86          1.135         -8.328          61.15         -17.08          58.59          6.183          95.31
     1.513              -53.51          35.07          44.76           63.8          1.106         -8.306          60.95         -16.91          58.12          6.192          95.44
